<svg width="163" height="36" viewBox="0 0 163 36" fill="none" xmlns="http://www.w3.org/2000/svg">
<g clip-path="url(#clip0_131_800)">
<rect x="5" y="6" width="24" height="24" rx="4" fill="#004D40"/>
<circle cx="3" cy="2" r="14" fill="url(#paint0_linear_131_800)"/>
<circle cx="38.5" cy="43.5" r="35.5" fill="url(#paint1_linear_131_800)"/>
<path fill-rule="evenodd" clip-rule="evenodd" d="M15 9C15 8.44772 15.4477 8 16 8H18H24V11H18V14H24V17H18V19C18 19.5523 18.4477 20 19 20H24V23H17H16C15.4477 23 15 22.5523 15 22V21V16V15V10V9ZM10 13H12C12.5523 13 13 13.4477 13 14V24C13 24.5523 13.4477 25 14 25H19V28H12H11C10.4477 28 10 27.5523 10 27V26V13Z" fill="white"/>
</g>
<path d="M46.1709 28H36.9912V12.0454H39.2007V26.1445H46.1709V28ZM57.7188 28L57.6699 26.3521C57.0026 27.0112 56.3231 27.4873 55.6313 27.7803C54.9478 28.0732 54.2275 28.2197 53.4707 28.2197C52.7708 28.2197 52.1727 28.1302 51.6763 27.9512C51.1799 27.7721 50.7689 27.528 50.4434 27.2188C50.126 26.9014 49.89 26.5311 49.7354 26.1079C49.5889 25.6847 49.5156 25.2249 49.5156 24.7285C49.5156 23.4997 49.9714 22.5394 50.8828 21.8477C51.8024 21.1478 53.1574 20.7979 54.9478 20.7979H57.4868V19.7236C57.4868 18.9993 57.2549 18.4215 56.791 17.9902C56.3271 17.5508 55.6191 17.3311 54.667 17.3311C53.9753 17.3311 53.2917 17.4084 52.6162 17.563C51.9489 17.7176 51.2572 17.9373 50.541 18.2222V16.3057C50.8096 16.208 51.1066 16.1144 51.4321 16.0249C51.7658 15.9272 52.1157 15.8418 52.4819 15.7686C52.8481 15.6953 53.2306 15.6383 53.6294 15.5977C54.0282 15.5488 54.431 15.5244 54.8379 15.5244C55.5785 15.5244 56.2458 15.6058 56.8398 15.7686C57.4339 15.9313 57.9344 16.1795 58.3413 16.5132C58.7563 16.8468 59.0737 17.266 59.2935 17.7705C59.5132 18.2751 59.623 18.8691 59.623 19.5527V28H57.7188ZM57.4868 22.4214H54.7891C54.2601 22.4214 53.8044 22.4743 53.4219 22.5801C53.0394 22.6859 52.7261 22.8364 52.4819 23.0317C52.2378 23.2271 52.0547 23.4631 51.9326 23.7397C51.8187 24.0083 51.7617 24.3135 51.7617 24.6553C51.7617 24.8913 51.7983 25.1191 51.8716 25.3389C51.9448 25.5505 52.0628 25.7417 52.2256 25.9126C52.3883 26.0754 52.5999 26.2056 52.8604 26.3032C53.1208 26.4009 53.4382 26.4497 53.8125 26.4497C54.3008 26.4497 54.8582 26.3032 55.4849 26.0103C56.1196 25.7091 56.7869 25.2371 57.4868 24.5942V22.4214ZM73.5146 28H63.6392V26.4741L70.5605 17.5264H63.8101V15.7441H73.1118V17.4043L66.3125 26.2056H73.5146V28ZM88.2363 15.7441L84.0615 26.7061C83.6302 27.821 83.1826 28.7812 82.7188 29.5869C82.263 30.3926 81.7625 31.0518 81.2173 31.5645C80.672 32.0853 80.0739 32.4678 79.4229 32.7119C78.7718 32.9561 78.0435 33.0781 77.2378 33.0781C77.0262 33.0781 76.835 33.0741 76.6641 33.0659C76.4932 33.0578 76.306 33.0456 76.1025 33.0293V31.1006C76.2816 31.125 76.4769 31.1453 76.6885 31.1616C76.9001 31.186 77.1239 31.1982 77.3599 31.1982C77.7505 31.1982 78.1126 31.1413 78.4463 31.0273C78.7881 30.9134 79.1095 30.7262 79.4106 30.4658C79.7118 30.2135 80.0007 29.884 80.2773 29.4771C80.554 29.0701 80.8226 28.5778 81.083 28L76.188 15.7441H78.605L81.7056 23.8496L82.3281 25.7539L83.0361 23.8008L85.9048 15.7441H88.2363ZM101.432 21.2251C101.432 21.5262 101.428 21.7785 101.42 21.9819C101.412 22.1854 101.4 22.3766 101.383 22.5557H92.7773C92.7773 23.8089 93.1273 24.7733 93.8271 25.4487C94.527 26.116 95.5361 26.4497 96.8545 26.4497C97.2126 26.4497 97.5706 26.4375 97.9287 26.4131C98.2868 26.3805 98.6326 26.3398 98.9663 26.291C99.3 26.2422 99.6174 26.1893 99.9185 26.1323C100.228 26.0672 100.513 25.998 100.773 25.9248V27.6704C100.195 27.8332 99.54 27.9634 98.8076 28.061C98.0833 28.1668 97.3306 28.2197 96.5493 28.2197C95.4995 28.2197 94.5962 28.0773 93.8394 27.7925C93.0825 27.5076 92.46 27.0967 91.9717 26.5596C91.4915 26.0143 91.1335 25.3511 90.8975 24.5698C90.6696 23.7804 90.5557 22.8893 90.5557 21.8965C90.5557 21.0339 90.6777 20.2201 90.9219 19.4551C91.1742 18.682 91.5363 18.0065 92.0083 17.4287C92.4884 16.8428 93.0744 16.3789 93.7661 16.0371C94.4578 15.6953 95.2432 15.5244 96.1221 15.5244C96.9766 15.5244 97.7334 15.6587 98.3926 15.9272C99.0518 16.1958 99.6051 16.5783 100.053 17.0747C100.508 17.563 100.85 18.1611 101.078 18.8691C101.314 19.569 101.432 20.3543 101.432 21.2251ZM99.2227 20.9199C99.2471 20.3747 99.1942 19.8783 99.064 19.4307C98.9338 18.9749 98.7303 18.5843 98.4536 18.2588C98.1851 17.9333 97.8473 17.681 97.4404 17.502C97.0335 17.3148 96.5615 17.2212 96.0244 17.2212C95.5605 17.2212 95.1374 17.3107 94.7549 17.4897C94.3724 17.6688 94.0428 17.9211 93.7661 18.2466C93.4894 18.5721 93.2656 18.9627 93.0947 19.4185C92.9238 19.8742 92.818 20.3747 92.7773 20.9199H99.2227ZM112.699 28L112.65 26.3521C111.983 27.0112 111.304 27.4873 110.612 27.7803C109.928 28.0732 109.208 28.2197 108.451 28.2197C107.751 28.2197 107.153 28.1302 106.657 27.9512C106.16 27.7721 105.749 27.528 105.424 27.2188C105.106 26.9014 104.87 26.5311 104.716 26.1079C104.569 25.6847 104.496 25.2249 104.496 24.7285C104.496 23.4997 104.952 22.5394 105.863 21.8477C106.783 21.1478 108.138 20.7979 109.928 20.7979H112.467V19.7236C112.467 18.9993 112.235 18.4215 111.771 17.9902C111.308 17.5508 110.6 17.3311 109.647 17.3311C108.956 17.3311 108.272 17.4084 107.597 17.563C106.929 17.7176 106.238 17.9373 105.521 18.2222V16.3057C105.79 16.208 106.087 16.1144 106.413 16.0249C106.746 15.9272 107.096 15.8418 107.462 15.7686C107.829 15.6953 108.211 15.6383 108.61 15.5977C109.009 15.5488 109.411 15.5244 109.818 15.5244C110.559 15.5244 111.226 15.6058 111.82 15.7686C112.414 15.9313 112.915 16.1795 113.322 16.5132C113.737 16.8468 114.054 17.266 114.274 17.7705C114.494 18.2751 114.604 18.8691 114.604 19.5527V28H112.699ZM112.467 22.4214H109.77C109.241 22.4214 108.785 22.4743 108.402 22.5801C108.02 22.6859 107.707 22.8364 107.462 23.0317C107.218 23.2271 107.035 23.4631 106.913 23.7397C106.799 24.0083 106.742 24.3135 106.742 24.6553C106.742 24.8913 106.779 25.1191 106.852 25.3389C106.925 25.5505 107.043 25.7417 107.206 25.9126C107.369 26.0754 107.58 26.2056 107.841 26.3032C108.101 26.4009 108.419 26.4497 108.793 26.4497C109.281 26.4497 109.839 26.3032 110.465 26.0103C111.1 25.7091 111.767 25.2371 112.467 24.5942V22.4214ZM119.071 15.7441H121.012L121.073 18.0024C121.798 17.1317 122.51 16.501 123.209 16.1104C123.917 15.7197 124.63 15.5244 125.346 15.5244C126.615 15.5244 127.576 15.9354 128.227 16.7573C128.886 17.5793 129.191 18.8 129.142 20.4194H126.994C127.018 19.3452 126.859 18.568 126.518 18.0879C126.184 17.5996 125.692 17.3555 125.041 17.3555C124.756 17.3555 124.467 17.4084 124.174 17.5142C123.889 17.6118 123.592 17.7746 123.283 18.0024C122.982 18.2222 122.66 18.507 122.318 18.8569C121.977 19.2069 121.61 19.63 121.22 20.1265V28H119.071V15.7441ZM142.191 27.8291C141.711 27.9512 141.215 28.0366 140.702 28.0854C140.189 28.1424 139.669 28.1709 139.14 28.1709C137.602 28.1709 136.454 27.825 135.697 27.1333C134.94 26.4334 134.562 25.3633 134.562 23.9229V17.5264H131.132V15.7441H134.562V12.375L136.686 11.8257V15.7441H142.191V17.5264H136.686V23.752C136.686 24.6309 136.918 25.29 137.382 25.7295C137.854 26.1608 138.546 26.3765 139.457 26.3765C139.848 26.3765 140.275 26.348 140.739 26.291C141.203 26.2259 141.687 26.1283 142.191 25.998V27.8291ZM155.912 28H153.788V20.1753C153.788 19.2313 153.609 18.5273 153.251 18.0635C152.901 17.5915 152.396 17.3555 151.737 17.3555C151.452 17.3555 151.184 17.3962 150.932 17.4775C150.688 17.5508 150.431 17.6851 150.163 17.8804C149.894 18.0675 149.601 18.3239 149.284 18.6494C148.966 18.9749 148.6 19.3818 148.185 19.8701V28H146.061V10.7515H148.185V15.7441L148.112 17.6729C148.445 17.2741 148.771 16.9404 149.088 16.6719C149.414 16.3952 149.735 16.1714 150.053 16.0005C150.378 15.8296 150.708 15.7075 151.042 15.6343C151.375 15.561 151.721 15.5244 152.079 15.5244C153.3 15.5244 154.244 15.8988 154.911 16.6475C155.578 17.388 155.912 18.507 155.912 20.0044V28Z" fill="#9E9E9E"/>
<defs>
<linearGradient id="paint0_linear_131_800" x1="15" y1="-2.5" x2="3" y2="14" gradientUnits="userSpaceOnUse">
<stop stop-color="#26A69A"/>
<stop offset="1" stop-color="#004D40"/>
</linearGradient>
<linearGradient id="paint1_linear_131_800" x1="19" y1="36.5" x2="37.5" y2="8" gradientUnits="userSpaceOnUse">
<stop stop-color="#004D40"/>
<stop offset="1" stop-color="#9E9E9E"/>
</linearGradient>
<clipPath id="clip0_131_800">
<rect x="5" y="6" width="24" height="24" rx="4" fill="white"/>
</clipPath>
</defs>
</svg>
