<svg width="157" height="30" viewBox="0 0 157 30" fill="none" xmlns="http://www.w3.org/2000/svg">
<g clip-path="url(#clip0_114_828)">
<rect width="24" height="24" rx="4" fill="#004D40"/>
<circle cx="-2" cy="-4" r="14" fill="url(#paint0_linear_114_828)"/>
<circle cx="33.5" cy="37.5" r="35.5" fill="url(#paint1_linear_114_828)"/>
<path fill-rule="evenodd" clip-rule="evenodd" d="M10 3C10 2.44772 10.4477 2 11 2H13H19V5H13V8H19V11H13V13C13 13.5523 13.4477 14 14 14H19V17H12H11C10.4477 17 10 16.5523 10 16V15V10V9V4V3ZM5 7H7C7.55228 7 8 7.44772 8 8V18C8 18.5523 8.44772 19 9 19H14V22H7H6C5.44772 22 5 21.5523 5 21V20V7Z" fill="white"/>
</g>
<path d="M45.1709 22H35.9912V6.04541H38.2007V20.1445H45.1709V22ZM56.7188 22L56.6699 20.3521C56.0026 21.0112 55.3231 21.4873 54.6313 21.7803C53.9478 22.0732 53.2275 22.2197 52.4707 22.2197C51.7708 22.2197 51.1727 22.1302 50.6763 21.9512C50.1799 21.7721 49.7689 21.528 49.4434 21.2188C49.126 20.9014 48.89 20.5311 48.7354 20.1079C48.5889 19.6847 48.5156 19.2249 48.5156 18.7285C48.5156 17.4997 48.9714 16.5394 49.8828 15.8477C50.8024 15.1478 52.1574 14.7979 53.9478 14.7979H56.4868V13.7236C56.4868 12.9993 56.2549 12.4215 55.791 11.9902C55.3271 11.5508 54.6191 11.3311 53.667 11.3311C52.9753 11.3311 52.2917 11.4084 51.6162 11.563C50.9489 11.7176 50.2572 11.9373 49.541 12.2222V10.3057C49.8096 10.208 50.1066 10.1144 50.4321 10.0249C50.7658 9.92725 51.1157 9.8418 51.4819 9.76855C51.8481 9.69531 52.2306 9.63835 52.6294 9.59766C53.0282 9.54883 53.431 9.52441 53.8379 9.52441C54.5785 9.52441 55.2458 9.60579 55.8398 9.76855C56.4339 9.93132 56.9344 10.1795 57.3413 10.5132C57.7563 10.8468 58.0737 11.266 58.2935 11.7705C58.5132 12.2751 58.623 12.8691 58.623 13.5527V22H56.7188ZM56.4868 16.4214H53.7891C53.2601 16.4214 52.8044 16.4743 52.4219 16.5801C52.0394 16.6859 51.7261 16.8364 51.4819 17.0317C51.2378 17.2271 51.0547 17.4631 50.9326 17.7397C50.8187 18.0083 50.7617 18.3135 50.7617 18.6553C50.7617 18.8913 50.7983 19.1191 50.8716 19.3389C50.9448 19.5505 51.0628 19.7417 51.2256 19.9126C51.3883 20.0754 51.5999 20.2056 51.8604 20.3032C52.1208 20.4009 52.4382 20.4497 52.8125 20.4497C53.3008 20.4497 53.8582 20.3032 54.4849 20.0103C55.1196 19.7091 55.7869 19.2371 56.4868 18.5942V16.4214ZM72.5146 22H62.6392V20.4741L69.5605 11.5264H62.8101V9.74414H72.1118V11.4043L65.3125 20.2056H72.5146V22ZM87.2363 9.74414L83.0615 20.7061C82.6302 21.821 82.1826 22.7812 81.7188 23.5869C81.263 24.3926 80.7625 25.0518 80.2173 25.5645C79.672 26.0853 79.0739 26.4678 78.4229 26.7119C77.7718 26.9561 77.0435 27.0781 76.2378 27.0781C76.0262 27.0781 75.835 27.0741 75.6641 27.0659C75.4932 27.0578 75.306 27.0456 75.1025 27.0293V25.1006C75.2816 25.125 75.4769 25.1453 75.6885 25.1616C75.9001 25.186 76.1239 25.1982 76.3599 25.1982C76.7505 25.1982 77.1126 25.1413 77.4463 25.0273C77.7881 24.9134 78.1095 24.7262 78.4106 24.4658C78.7118 24.2135 79.0007 23.884 79.2773 23.4771C79.554 23.0701 79.8226 22.5778 80.083 22L75.188 9.74414H77.605L80.7056 17.8496L81.3281 19.7539L82.0361 17.8008L84.9048 9.74414H87.2363ZM100.432 15.2251C100.432 15.5262 100.428 15.7785 100.42 15.9819C100.412 16.1854 100.4 16.3766 100.383 16.5557H91.7773C91.7773 17.8089 92.1273 18.7733 92.8271 19.4487C93.527 20.116 94.5361 20.4497 95.8545 20.4497C96.2126 20.4497 96.5706 20.4375 96.9287 20.4131C97.2868 20.3805 97.6326 20.3398 97.9663 20.291C98.3 20.2422 98.6174 20.1893 98.9185 20.1323C99.2277 20.0672 99.5125 19.998 99.7729 19.9248V21.6704C99.1951 21.8332 98.54 21.9634 97.8076 22.061C97.0833 22.1668 96.3306 22.2197 95.5493 22.2197C94.4995 22.2197 93.5962 22.0773 92.8394 21.7925C92.0825 21.5076 91.46 21.0967 90.9717 20.5596C90.4915 20.0143 90.1335 19.3511 89.8975 18.5698C89.6696 17.7804 89.5557 16.8893 89.5557 15.8965C89.5557 15.0339 89.6777 14.2201 89.9219 13.4551C90.1742 12.682 90.5363 12.0065 91.0083 11.4287C91.4884 10.8428 92.0744 10.3789 92.7661 10.0371C93.4578 9.69531 94.2432 9.52441 95.1221 9.52441C95.9766 9.52441 96.7334 9.65869 97.3926 9.92725C98.0518 10.1958 98.6051 10.5783 99.0527 11.0747C99.5085 11.563 99.8503 12.1611 100.078 12.8691C100.314 13.569 100.432 14.3543 100.432 15.2251ZM98.2227 14.9199C98.2471 14.3747 98.1942 13.8783 98.064 13.4307C97.9338 12.9749 97.7303 12.5843 97.4536 12.2588C97.1851 11.9333 96.8473 11.681 96.4404 11.502C96.0335 11.3148 95.5615 11.2212 95.0244 11.2212C94.5605 11.2212 94.1374 11.3107 93.7549 11.4897C93.3724 11.6688 93.0428 11.9211 92.7661 12.2466C92.4894 12.5721 92.2656 12.9627 92.0947 13.4185C91.9238 13.8742 91.818 14.3747 91.7773 14.9199H98.2227ZM111.699 22L111.65 20.3521C110.983 21.0112 110.304 21.4873 109.612 21.7803C108.928 22.0732 108.208 22.2197 107.451 22.2197C106.751 22.2197 106.153 22.1302 105.657 21.9512C105.16 21.7721 104.749 21.528 104.424 21.2188C104.106 20.9014 103.87 20.5311 103.716 20.1079C103.569 19.6847 103.496 19.2249 103.496 18.7285C103.496 17.4997 103.952 16.5394 104.863 15.8477C105.783 15.1478 107.138 14.7979 108.928 14.7979H111.467V13.7236C111.467 12.9993 111.235 12.4215 110.771 11.9902C110.308 11.5508 109.6 11.3311 108.647 11.3311C107.956 11.3311 107.272 11.4084 106.597 11.563C105.929 11.7176 105.238 11.9373 104.521 12.2222V10.3057C104.79 10.208 105.087 10.1144 105.413 10.0249C105.746 9.92725 106.096 9.8418 106.462 9.76855C106.829 9.69531 107.211 9.63835 107.61 9.59766C108.009 9.54883 108.411 9.52441 108.818 9.52441C109.559 9.52441 110.226 9.60579 110.82 9.76855C111.414 9.93132 111.915 10.1795 112.322 10.5132C112.737 10.8468 113.054 11.266 113.274 11.7705C113.494 12.2751 113.604 12.8691 113.604 13.5527V22H111.699ZM111.467 16.4214H108.77C108.241 16.4214 107.785 16.4743 107.402 16.5801C107.02 16.6859 106.707 16.8364 106.462 17.0317C106.218 17.2271 106.035 17.4631 105.913 17.7397C105.799 18.0083 105.742 18.3135 105.742 18.6553C105.742 18.8913 105.779 19.1191 105.852 19.3389C105.925 19.5505 106.043 19.7417 106.206 19.9126C106.369 20.0754 106.58 20.2056 106.841 20.3032C107.101 20.4009 107.419 20.4497 107.793 20.4497C108.281 20.4497 108.839 20.3032 109.465 20.0103C110.1 19.7091 110.767 19.2371 111.467 18.5942V16.4214ZM118.071 9.74414H120.012L120.073 12.0024C120.798 11.1317 121.51 10.501 122.209 10.1104C122.917 9.71973 123.63 9.52441 124.346 9.52441C125.615 9.52441 126.576 9.93538 127.227 10.7573C127.886 11.5793 128.191 12.8 128.142 14.4194H125.994C126.018 13.3452 125.859 12.568 125.518 12.0879C125.184 11.5996 124.692 11.3555 124.041 11.3555C123.756 11.3555 123.467 11.4084 123.174 11.5142C122.889 11.6118 122.592 11.7746 122.283 12.0024C121.982 12.2222 121.66 12.507 121.318 12.8569C120.977 13.2069 120.61 13.63 120.22 14.1265V22H118.071V9.74414ZM141.191 21.8291C140.711 21.9512 140.215 22.0366 139.702 22.0854C139.189 22.1424 138.669 22.1709 138.14 22.1709C136.602 22.1709 135.454 21.825 134.697 21.1333C133.94 20.4334 133.562 19.3633 133.562 17.9229V11.5264H130.132V9.74414H133.562V6.375L135.686 5.82568V9.74414H141.191V11.5264H135.686V17.752C135.686 18.6309 135.918 19.29 136.382 19.7295C136.854 20.1608 137.546 20.3765 138.457 20.3765C138.848 20.3765 139.275 20.348 139.739 20.291C140.203 20.2259 140.687 20.1283 141.191 19.998V21.8291ZM154.912 22H152.788V14.1753C152.788 13.2313 152.609 12.5273 152.251 12.0635C151.901 11.5915 151.396 11.3555 150.737 11.3555C150.452 11.3555 150.184 11.3962 149.932 11.4775C149.688 11.5508 149.431 11.6851 149.163 11.8804C148.894 12.0675 148.601 12.3239 148.284 12.6494C147.966 12.9749 147.6 13.3818 147.185 13.8701V22H145.061V4.75146H147.185V9.74414L147.112 11.6729C147.445 11.2741 147.771 10.9404 148.088 10.6719C148.414 10.3952 148.735 10.1714 149.053 10.0005C149.378 9.82959 149.708 9.70752 150.042 9.63428C150.375 9.56104 150.721 9.52441 151.079 9.52441C152.3 9.52441 153.244 9.89876 153.911 10.6475C154.578 11.388 154.912 12.507 154.912 14.0044V22Z" fill="white"/>
<defs>
<linearGradient id="paint0_linear_114_828" x1="10" y1="-8.5" x2="-2" y2="8" gradientUnits="userSpaceOnUse">
<stop stop-color="#26A69A"/>
<stop offset="1" stop-color="#004D40"/>
</linearGradient>
<linearGradient id="paint1_linear_114_828" x1="14" y1="30.5" x2="32.5" y2="2" gradientUnits="userSpaceOnUse">
<stop stop-color="#004D40"/>
<stop offset="1" stop-color="#9E9E9E"/>
</linearGradient>
<clipPath id="clip0_114_828">
<rect width="24" height="24" rx="4" fill="white"/>
</clipPath>
</defs>
</svg>
